HIERARCHY
ROOT SimulationBone
{
	OFFSET 0.000000 0.000000 0.000000
	CHANNELS 6 Xposition Yposition Zposition Zrotation Yrotation Xrotation 
	JOINT Hips
	{
		OFFSET 0.000000 0.000000 0.000000
		CHANNELS 6 Xposition Yposition Zposition Zrotation Yrotation Xrotation 
		JOINT RightUpLeg
		{
			OFFSET 0.103459 1.857826 10.548510
			CHANNELS 3 Zrotation Yrotation Xrotation
			JOINT RightLeg
			{
				OFFSET 43.500000 -0.000023 0.000004
				CHANNELS 3 Zrotation Yrotation Xrotation
				JOINT RightFoot
				{
					OFFSET 42.372200 0.000015 0.000002
					CHANNELS 3 Zrotation Yrotation Xrotation
					JOINT RightToe
					{
						OFFSET 17.299997 -0.000001 -0.000010
						CHANNELS 3 Zrotation Yrotation Xrotation
						End Site
						{
							OFFSET 0.000000 0.000000 0.000000
						}
					}
				}
			}
		}
		JOINT LeftUpLeg
		{
			OFFSET 0.103462 1.857828 -10.548512
			CHANNELS 3 Zrotation Yrotation Xrotation
			JOINT LeftLeg
			{
				OFFSET 43.500046 -0.000019 0.000004
				CHANNELS 3 Zrotation Yrotation Xrotation
				JOINT LeftFoot
				{
					OFFSET 42.372265 -0.000008 0.000019
					CHANNELS 3 Zrotation Yrotation Xrotation
					JOINT LeftToe
					{
						OFFSET 17.299994 -0.000005 -0.000002
						CHANNELS 3 Zrotation Yrotation Xrotation
						End Site
						{
							OFFSET 0.000000 0.000000 0.000000
						}
					}
				}
			}
		}
		JOINT Spine
		{
			OFFSET 6.901970 -2.603727 0.000005
			CHANNELS 3 Zrotation Yrotation Xrotation
			JOINT Spine1
			{
				OFFSET 12.588102 0.000001 -0.000000
				CHANNELS 3 Zrotation Yrotation Xrotation
				JOINT Spine2
				{
					OFFSET 12.343201 -0.000005 -0.000002
					CHANNELS 3 Zrotation Yrotation Xrotation
					JOINT Neck
					{
						OFFSET 25.832886 -0.000002 0.000004
						CHANNELS 3 Zrotation Yrotation Xrotation
						JOINT Head
						{
							OFFSET 11.766621 0.000007 -0.000003
							CHANNELS 3 Zrotation Yrotation Xrotation
							End Site
							{
								OFFSET 0.000000 0.000000 0.000000
							}
						}
					}
					JOINT RightShoulder
					{
						OFFSET 19.745899 -1.480368 6.000106
						CHANNELS 3 Zrotation Yrotation Xrotation
						JOINT RightArm
						{
							OFFSET 11.284125 -0.000008 -0.000024
							CHANNELS 3 Zrotation Yrotation Xrotation
							JOINT RightForeArm
							{
								OFFSET 33.000053 0.000001 0.000031
								CHANNELS 3 Zrotation Yrotation Xrotation
								JOINT RightHand
								{
									OFFSET 25.200008 0.000018 0.000007
									CHANNELS 3 Zrotation Yrotation Xrotation
									End Site
									{
										OFFSET 0.000000 0.000000 0.000000
									}
								}
							}
						}
					}
					JOINT LeftShoulder
					{
						OFFSET 19.746098 -1.480373 -6.000077
						CHANNELS 3 Zrotation Yrotation Xrotation
						JOINT LeftArm
						{
							OFFSET 11.284138 -0.000021 -0.000000
							CHANNELS 3 Zrotation Yrotation Xrotation
							JOINT LeftForeArm
							{
								OFFSET 33.000088 0.000017 0.000003
								CHANNELS 3 Zrotation Yrotation Xrotation
								JOINT LeftHand
								{
									OFFSET 25.199770 0.000141 0.000423
									CHANNELS 3 Zrotation Yrotation Xrotation
									End Site
									{
										OFFSET 0.000000 0.000000 0.000000
									}
								}
							}
						}
					}
				}
			}
		}
	}
}
MOTION
Frames: 9
Frame Time: 0.033333
336.174404 0.000000 -137.570542 180.000000 -3.914060 180.000000 -0.323920 91.710777 0.056481 91.996037 -1.937479 171.682805 171.226367 0.011994 175.604341 -16.211300 -1.901108 -5.734214 78.524697 3.592303 -1.945085 21.454557 0.003109 0.000018 -165.490935 6.672806 -176.770186 -18.902601 2.726587 -3.848282 81.123133 3.712567 4.631856 21.454548 -0.003093 0.000001 7.996316 -1.624232 1.432365 5.941922 -3.319431 2.780939 5.623670 -3.302720 2.800929 18.054978 -5.520748 0.913192 -14.079137 6.659638 -1.265547 171.246940 -71.320391 7.659061 -1.367183 47.544431 48.726426 -25.138397 -14.538397 1.140463 8.749733 -1.109733 7.148209 -174.004902 79.763147 7.620150 -27.334723 -58.928591 -27.434572 -42.334657 19.364778 -1.806796 -0.836682 11.664626 -5.125862 
338.204076 0.000000 -138.142335 180.000000 -3.874269 180.000000 -0.658236 91.469673 -0.060545 91.897679 -2.457965 172.191912 169.192925 0.229507 175.645787 -16.686268 -1.624697 -5.595110 77.111613 3.388622 -2.297136 21.454558 0.003109 0.000017 -165.266454 6.206497 -178.328084 -16.215183 2.893903 -2.308652 83.694966 2.325550 3.790711 21.454557 -0.003092 0.000000 8.110679 -1.590080 1.426678 6.171658 -3.253572 2.767935 5.853394 -3.236940 2.787527 17.830945 -6.448919 0.908935 -13.951939 7.026303 -1.397220 171.927008 -71.513611 6.953982 -1.130157 48.165196 46.155645 -25.634690 -15.245027 1.193445 8.425525 -2.250740 4.120221 -174.905271 80.250707 6.710037 -28.803485 -58.222513 -26.868735 -42.417012 19.389481 -1.810752 -0.436946 11.015739 -5.510867 
340.174953 0.000000 -138.764553 180.000000 -3.823529 180.000000 -1.077319 91.250961 -0.133687 91.970120 -2.512380 173.312611 167.354374 0.118699 175.754346 -17.060363 -1.184246 -5.130867 75.503971 2.941642 -2.643831 21.454560 0.003107 0.000017 -165.297026 5.314697 -178.455877 -14.438697 3.221582 -1.064930 85.466499 1.168451 2.673605 21.454550 -0.003092 0.000000 8.362643 -1.393302 1.346634 6.681843 -2.861692 2.611596 6.363671 -2.846009 2.628821 17.368078 -7.241177 0.701577 -14.363521 7.170217 -1.724653 171.853037 -71.444578 7.031982 -2.074699 48.910486 43.289708 -26.133359 -16.050844 1.252929 8.649809 -3.519748 1.910377 -175.780874 80.766495 5.826828 -29.809715 -57.366615 -26.209108 -42.578361 19.358581 -1.813300 -0.620866 10.976683 -5.442358 
342.096307 0.000000 -139.408247 180.000000 -3.756240 180.000000 -1.564723 90.970413 -0.156293 92.084863 -2.276579 175.092900 165.379944 -0.150604 176.472636 -17.624799 -0.859835 -4.622165 73.795816 2.525551 -2.723587 21.454560 0.003110 0.000017 -165.643548 4.110306 -177.733612 -13.446276 3.489877 -0.285707 87.016323 0.389888 1.585392 21.454553 -0.003092 0.000000 8.651538 -1.070887 1.191581 7.269200 -2.214249 2.314089 6.951131 -2.200376 2.327409 17.290335 -7.632448 0.191498 -15.201511 7.083697 -2.299490 170.937983 -71.359685 7.975949 -4.050851 49.885666 40.536835 -26.194377 -16.579581 1.287552 8.797424 -5.750977 -0.000108 -176.313711 80.977220 5.288838 -29.956633 -56.358217 -25.949212 -42.646786 19.267880 -1.809286 -0.908338 11.546758 -5.195152 
343.973417 0.000000 -140.047146 180.000000 -3.681710 180.000000 -2.026649 90.674713 -0.172941 92.241022 -1.861164 177.069837 163.569466 -0.507294 176.916120 -18.003967 -0.495704 -3.837986 72.292129 1.825138 -3.066474 21.454557 0.003108 0.000017 -166.215017 2.864304 -177.470226 -12.911469 3.806913 0.432983 88.398125 -0.256352 0.842033 21.454553 -0.003092 0.000000 8.943054 -0.674644 1.063131 7.860980 -1.419759 2.078180 7.542984 -1.407322 2.086707 17.453983 -7.880232 -0.526570 -16.147073 7.126916 -3.130864 168.826061 -71.230704 10.150999 -6.859363 51.172378 36.983395 -25.691357 -16.595982 1.280221 8.630523 -9.036979 -1.703188 -175.891988 81.139663 5.718511 -29.678313 -55.486199 -26.046021 -42.372561 19.161551 -1.794519 -0.726945 12.265090 -4.378813 
345.796152 0.000000 -140.675131 180.000000 -3.607204 180.000000 -2.401026 90.459824 -0.160404 92.394505 -1.347967 178.871769 162.372079 -1.052994 177.063994 -17.421972 -0.279577 -2.975555 71.082913 0.830265 -4.130216 21.454557 0.003108 0.000018 -166.870851 1.619507 -176.878185 -12.452755 4.055154 0.894012 89.194279 -0.699799 0.102839 21.454557 -0.003092 0.000000 9.199949 -0.258957 0.981789 8.382170 -0.588211 1.942258 8.064234 -0.576611 1.945766 17.825610 -8.032842 -1.317516 -17.188019 7.174219 -4.035375 166.701039 -71.010308 12.344014 -10.680508 52.551158 33.510981 -24.516242 -16.342928 1.245357 8.613872 -12.627839 -6.290329 -176.589582 81.094747 5.010531 -28.813812 -54.512454 -26.655037 -41.657361 18.799554 -1.750722 -0.422158 13.072359 -3.280729 
347.549053 0.000000 -141.294809 180.000000 -3.546494 180.000000 -2.620787 90.342163 -0.201820 92.459887 -1.056625 -179.585025 161.788412 -1.529404 177.216580 -16.141894 -0.495162 -2.524376 70.719963 -0.168559 -6.147971 21.454560 0.003107 0.000016 -167.478260 0.487198 -176.310924 -11.703843 3.964912 1.564802 89.450555 -1.220410 -0.378832 21.454551 -0.003092 0.000001 9.378246 0.054118 0.879504 8.743954 0.041725 1.760551 8.426022 0.052218 1.760260 17.817575 -7.499255 -1.828521 -16.960745 6.916524 -4.467454 164.517933 -70.596227 14.605009 -14.387997 53.708516 30.183081 -23.497755 -16.259472 1.224639 8.258353 -15.950191 -13.130952 -177.551191 80.735472 4.030136 -28.219393 -53.585747 -27.719244 -39.865267 18.341086 -1.672093 0.007577 13.337442 -1.773264 
349.224739 0.000000 -141.898282 180.000000 -3.513752 180.000000 -2.747231 90.406113 -0.244819 92.377965 -1.049804 -178.249521 161.507883 -1.716202 176.827983 -15.346291 -0.742393 -2.658553 71.405045 -0.785170 -8.483915 21.454555 0.003109 0.000018 -167.989869 -0.542205 -175.916781 -10.399223 3.451195 2.446884 88.944690 -1.829999 -0.530211 21.454553 -0.003092 0.000000 9.470590 0.230605 0.699721 8.930902 0.406597 1.415128 8.612913 0.414998 1.412642 17.789429 -6.667357 -1.987010 -15.808398 6.951696 -4.568074 162.608035 -70.215683 16.584953 -16.357763 54.763719 27.117016 -24.508623 -16.999931 1.286851 6.997650 -19.785231 -18.739710 -177.843591 80.228187 3.725852 -28.841211 -52.903053 -28.434190 -36.490931 17.284122 -1.517935 0.553528 13.111910 -0.260535 
350.817135 0.000000 -142.477959 180.000000 -3.513331 180.000000 -2.875889 90.597527 -0.260980 91.898617 -1.064424 -177.189147 161.011929 -1.847900 176.131154 -16.301674 -0.908520 -3.117534 72.535899 -0.381235 -8.537512 21.454558 0.003109 0.000017 -169.247020 -1.259201 -175.696767 -9.744033 3.118661 3.067695 88.160865 -2.285722 -0.772968 21.454555 -0.003092 0.000000 9.430847 0.335361 0.494012 8.851778 0.632019 1.012213 8.533699 0.637983 1.008372 17.887495 -5.552035 -1.909900 -13.968498 6.883285 -4.329318 161.383068 -69.901706 17.859012 -16.490013 55.694223 24.996735 -28.575336 -18.920708 1.478774 6.679758 -24.512581 -21.142777 -177.338280 79.951940 4.235092 -30.406284 -52.906874 -28.987425 -32.017116 16.044418 -1.337294 1.621666 12.441832 0.389252 
